<?xml version="1.0" standalone="no"?>
<!DOCTYPE svg PUBLIC "-//W3C//DTD SVG 20010904//EN"
 "http://www.w3.org/TR/2001/REC-SVG-20010904/DTD/svg10.dtd">
<svg version="1.0" xmlns="http://www.w3.org/2000/svg"
 width="300.000000pt" height="300.000000pt" viewBox="0 0 300.000000 300.000000"
 preserveAspectRatio="xMidYMid meet">
<metadata>
Created by potrace 1.14, written by Peter Selinger 2001-2017
</metadata>
<g transform="translate(0.000000,300.000000) scale(0.100000,-0.100000)"
fill="#000000" stroke="none">
<path d="M1378 2924 c-2 -2 -31 -6 -64 -9 -130 -12 -279 -52 -414 -111 -3 -1
-15 -5 -27 -9 -13 -4 -23 -11 -23 -16 0 -5 -3 -8 -7 -7 -11 2 -65 -23 -85 -40
-10 -9 -18 -11 -18 -6 0 5 -4 4 -8 -1 -4 -6 -37 -30 -74 -54 -38 -24 -68 -47
-68 -52 0 -5 -7 -9 -15 -9 -8 0 -15 -4 -15 -9 0 -5 -9 -13 -20 -16 -11 -4 -18
-11 -15 -16 4 -5 1 -9 -6 -9 -7 0 -44 -33 -83 -74 -82 -85 -92 -97 -152 -179
-24 -34 -49 -68 -54 -74 -6 -7 -8 -13 -5 -13 4 0 -2 -12 -13 -27 -31 -44 -62
-110 -55 -117 4 -3 1 -6 -5 -6 -9 0 -28 -39 -23 -48 1 -1 -6 -16 -14 -32 -9
-17 -12 -30 -8 -30 5 0 3 -4 -3 -8 -11 -7 -48 -142 -59 -212 -3 -19 -9 -60
-14 -90 -5 -30 -7 -116 -5 -190 5 -156 8 -182 18 -198 4 -7 5 -12 3 -12 -4 0
3 -34 18 -92 3 -10 7 -28 10 -39 15 -71 89 -247 110 -261 5 -4 6 -8 2 -8 -5 0
1 -17 14 -37 30 -52 73 -117 80 -123 3 -3 8 -10 10 -16 15 -41 288 -321 289
-296 0 4 5 -1 11 -11 5 -9 17 -17 24 -17 8 0 15 -4 15 -10 0 -5 5 -10 10 -10
6 0 20 -8 31 -18 10 -11 32 -25 47 -33 15 -8 29 -16 32 -19 9 -9 145 -74 155
-75 6 0 12 -2 15 -5 6 -8 119 -50 145 -55 11 -2 38 -9 60 -15 22 -6 51 -13 65
-15 14 -3 36 -7 50 -9 130 -24 329 -28 460 -11 76 9 262 55 278 67 6 6 12 8
12 5 0 -15 159 57 280 127 86 50 96 57 131 89 10 9 24 17 29 17 6 0 10 5 10
10 0 6 7 10 16 10 8 0 12 5 9 10 -3 6 -1 10 5 10 6 0 45 34 87 75 42 41 74 75
70 75 -4 0 7 14 25 30 17 17 28 30 25 30 -3 0 10 16 29 36 19 20 34 43 34 50
0 8 5 14 10 14 6 0 10 6 10 14 0 8 3 16 8 18 4 2 28 45 54 95 54 105 112 270
128 365 7 34 14 74 16 88 10 54 12 269 4 335 -16 118 -18 129 -28 156 -6 15
-9 29 -6 32 3 2 0 15 -5 28 -19 47 -24 64 -23 71 2 9 -58 150 -70 166 -6 6 -8
12 -4 12 7 0 -110 194 -139 229 -11 14 -30 35 -42 48 -13 13 -23 27 -23 31 0
13 -194 192 -208 192 -7 0 -11 4 -8 9 5 7 -26 27 -47 29 -4 1 -16 10 -25 20
-9 11 -42 33 -72 48 -30 16 -57 31 -60 35 -10 11 -88 47 -93 43 -2 -2 -10 2
-16 10 -7 8 -19 12 -27 9 -8 -3 -14 -1 -14 5 0 5 -10 12 -22 15 -13 3 -54 15
-93 27 -62 20 -107 31 -184 46 -71 14 -373 29 -383 18z"/>
</g>
</svg>
